<svg width="61" height="60" viewBox="0 0 61 60" fill="none" xmlns="http://www.w3.org/2000/svg">
<g clip-path="url(#clip0_4_3)">
<path d="M30.2288 54.1188C37.1039 54.2022 42.9502 51.8928 47.7676 47.1908C52.5851 42.4888 55.0354 36.7002 55.1188 29.8251C55.2022 22.9499 52.8928 17.1036 48.1908 12.2862C43.4888 7.46879 37.7002 5.0184 30.8251 4.93505C23.9499 4.8517 18.1036 7.16103 13.2862 11.863C8.46878 16.5651 6.01839 22.3536 5.93504 29.2288C5.85169 36.1039 8.16102 41.9502 12.863 46.7676C17.565 51.5851 23.3536 54.0355 30.2288 54.1188ZM29.8858 82.4127C22.658 82.3251 15.8438 80.854 9.44301 77.9995C3.04224 75.145 -2.53092 71.2867 -7.27647 66.4247C-12.022 61.5626 -15.744 55.8976 -18.4425 49.4295C-21.141 42.9614 -22.4465 36.1135 -22.3588 28.8858C-22.2702 21.5699 -20.7985 14.7116 -17.944 8.31081C-15.0895 1.91004 -11.2315 -3.64109 -6.37003 -8.34257C-1.50853 -13.0441 4.15626 -16.744 10.6244 -19.4425C17.0925 -22.141 23.9404 -23.4465 31.1681 -23.3588C38.4839 -23.2701 45.3423 -21.7985 51.743 -18.944C58.1438 -16.0895 63.6952 -12.2536 68.3972 -7.43613C73.0992 -2.6187 76.7995 3.02406 79.498 9.49215C82.1965 15.9602 83.5014 22.8522 83.4127 30.1681C83.3251 37.3958 81.854 44.2101 78.9995 50.6108C76.145 57.0116 72.3087 62.585 67.4908 67.3311C62.6728 72.0772 57.0298 75.7995 50.5617 78.498C44.0936 81.1965 37.2016 82.5014 29.8858 82.4127ZM29.9819 74.4798C42.4982 74.6316 53.1726 70.3752 62.0051 61.7108C70.8376 53.0464 75.3291 42.5001 75.4798 30.0719C75.6316 17.5556 71.3973 6.8815 62.7769 -1.95044C54.1565 -10.7824 43.5882 -15.2742 31.0719 -15.426C18.6438 -15.5766 7.99167 -11.3421 -0.884346 -2.72225C-9.76036 5.89758 -14.2742 16.4656 -14.426 28.9819C-14.5767 41.4101 -10.32 52.0624 -1.65615 60.939C7.00775 69.8155 17.5538 74.3292 29.9819 74.4798Z" fill="url(#paint0_linear_4_3)"/>
</g>
<defs>
<linearGradient id="paint0_linear_4_3" x1="-13.8107" y1="-22.5818" x2="84.1493" y2="77.6573" gradientUnits="userSpaceOnUse">
<stop stop-color="#F26CA6" stop-opacity="0.8"/>
<stop offset="1" stop-color="#FCBE3E"/>
</linearGradient>
<clipPath id="clip0_4_3">
<rect width="60" height="60" fill="white" transform="translate(1)"/>
</clipPath>
</defs>
</svg>
