<svg width="60" height="60" viewBox="0 0 60 60" fill="none" xmlns="http://www.w3.org/2000/svg">
<path d="M30.2917 46.9896C31.0695 46.9896 31.7257 46.7222 32.2604 46.1875C32.7951 45.6528 33.0625 44.9965 33.0625 44.2188C33.0625 43.441 32.7951 42.7847 32.2604 42.25C31.7257 41.7153 31.0695 41.4479 30.2917 41.4479C29.5139 41.4479 28.8576 41.7153 28.3229 42.25C27.7882 42.7847 27.5208 43.441 27.5208 44.2188C27.5208 44.9965 27.7882 45.6528 28.3229 46.1875C28.8576 46.7222 29.5139 46.9896 30.2917 46.9896ZM27.7697 35.3441C27.7353 35.8953 28.1873 36.3438 28.7396 36.3438H31.0417C31.594 36.3438 32.0372 35.8954 32.0762 35.3445C32.1384 34.4647 32.2849 33.6433 32.5156 32.8802C32.8316 31.8351 33.816 30.6319 35.4688 29.2708C36.9757 28.0069 38.0451 26.7674 38.6771 25.5521C39.309 24.3368 39.625 23 39.625 21.5417C39.625 18.9653 38.7865 16.8993 37.1094 15.3438C35.4323 13.7882 33.2083 13.0104 30.4375 13.0104C28.0556 13.0104 25.9531 13.6059 24.1302 14.7969C22.586 15.8057 21.3994 17.1373 20.5703 18.7915C20.3201 19.2907 20.5842 19.8802 21.1066 20.0774L23.0978 20.8288C23.6096 21.0219 24.1748 20.7634 24.4345 20.2819C24.9406 19.3434 25.6048 18.5845 26.4271 18.0052C27.4965 17.2517 28.7604 16.875 30.2188 16.875C31.8715 16.875 33.2083 17.3247 34.2292 18.224C35.25 19.1233 35.7604 20.2778 35.7604 21.6875C35.7604 22.7569 35.4445 23.7656 34.8125 24.7135C34.1806 25.6615 33.257 26.6458 32.0417 27.6667C30.5833 28.9306 29.5017 30.1823 28.7969 31.4219C28.211 32.4522 27.8686 33.7596 27.7697 35.3441ZM30 59.1667C26.0139 59.1667 22.2465 58.401 18.6979 56.8698C15.1493 55.3385 12.0504 53.2483 9.40105 50.599C6.75175 47.9497 4.66147 44.8507 3.13022 41.3021C1.59897 37.7535 0.833344 33.9861 0.833344 30C0.833344 25.9653 1.59897 22.1736 3.13022 18.625C4.66147 15.0764 6.75175 11.9896 9.40105 9.36459C12.0504 6.73959 15.1493 4.66146 18.6979 3.13021C22.2465 1.59896 26.0139 0.833336 30 0.833336C34.0347 0.833336 37.8264 1.59896 41.375 3.13021C44.9236 4.66146 48.0104 6.73959 50.6354 9.36459C53.2604 11.9896 55.3385 15.0764 56.8698 18.625C58.401 22.1736 59.1667 25.9653 59.1667 30C59.1667 33.9861 58.401 37.7535 56.8698 41.3021C55.3385 44.8507 53.2604 47.9497 50.6354 50.599C48.0104 53.2483 44.9236 55.3385 41.375 56.8698C37.8264 58.401 34.0347 59.1667 30 59.1667ZM30 54.7917C36.9028 54.7917 42.7604 52.3733 47.5729 47.5365C52.3854 42.6997 54.7917 36.8542 54.7917 30C54.7917 23.0972 52.3854 17.2396 47.5729 12.4271C42.7604 7.61459 36.9028 5.20834 30 5.20834C23.1458 5.20834 17.3004 7.61459 12.4636 12.4271C7.62675 17.2396 5.20834 23.0972 5.20834 30C5.20834 36.8542 7.62675 42.6997 12.4636 47.5365C17.3004 52.3733 23.1458 54.7917 30 54.7917Z" fill="white"/>
</svg>
