<svg width="40" height="40" viewBox="0 0 40 40" fill="none" xmlns="http://www.w3.org/2000/svg">
<path d="M20.2 31.65C20.7333 31.65 21.1833 31.4667 21.55 31.1C21.9167 30.7333 22.1 30.2833 22.1 29.75C22.1 29.2167 21.9167 28.7667 21.55 28.4C21.1833 28.0333 20.7333 27.85 20.2 27.85C19.6667 27.85 19.2167 28.0333 18.85 28.4C18.4833 28.7667 18.3 29.2167 18.3 29.75C18.3 30.2833 18.4833 30.7333 18.85 31.1C19.2167 31.4667 19.6667 31.65 20.2 31.65ZM18.4953 23.3514C18.4427 23.9012 18.8977 24.35 19.45 24.35H20.4C20.9523 24.35 21.3928 23.9009 21.4514 23.3518C21.5033 22.8656 21.5945 22.4067 21.725 21.975C21.9417 21.2583 22.6167 20.4333 23.75 19.5C24.7833 18.6333 25.5167 17.7833 25.95 16.95C26.3833 16.1167 26.6 15.2 26.6 14.2C26.6 12.4333 26.025 11.0167 24.875 9.95C23.725 8.88333 22.2 8.35 20.3 8.35C18.6667 8.35 17.225 8.75833 15.975 9.575C15.0054 10.2084 14.2414 11.0274 13.683 12.0319C13.4116 12.5199 13.6779 13.1115 14.2004 13.3086L14.9769 13.6017C15.4887 13.7948 16.0503 13.5326 16.339 13.0679C16.663 12.5465 17.0667 12.1155 17.55 11.775C18.2833 11.2583 19.15 11 20.15 11C21.2833 11 22.2 11.3083 22.9 11.925C23.6 12.5417 23.95 13.3333 23.95 14.3C23.95 15.0333 23.7333 15.725 23.3 16.375C22.8667 17.025 22.2333 17.7 21.4 18.4C20.4 19.2667 19.6583 20.125 19.175 20.975C18.8125 21.6125 18.586 22.4046 18.4953 23.3514ZM20 40C17.2667 40 14.6833 39.475 12.25 38.425C9.81667 37.375 7.69167 35.9417 5.875 34.125C4.05833 32.3083 2.625 30.1833 1.575 27.75C0.525 25.3167 0 22.7333 0 20C0 17.2333 0.525 14.6333 1.575 12.2C2.625 9.76667 4.05833 7.65 5.875 5.85C7.69167 4.05 9.81667 2.625 12.25 1.575C14.6833 0.525 17.2667 0 20 0C22.7667 0 25.3667 0.525 27.8 1.575C30.2333 2.625 32.35 4.05 34.15 5.85C35.95 7.65 37.375 9.76667 38.425 12.2C39.475 14.6333 40 17.2333 40 20C40 22.7333 39.475 25.3167 38.425 27.75C37.375 30.1833 35.95 32.3083 34.15 34.125C32.35 35.9417 30.2333 37.375 27.8 38.425C25.3667 39.475 22.7667 40 20 40ZM20 37C24.7333 37 28.75 35.3417 32.05 32.025C35.35 28.7083 37 24.7 37 20C37 15.2667 35.35 11.25 32.05 7.95C28.75 4.65 24.7333 3 20 3C15.3 3 11.2917 4.65 7.975 7.95C4.65833 11.25 3 15.2667 3 20C3 24.7 4.65833 28.7083 7.975 32.025C11.2917 35.3417 15.3 37 20 37Z" fill="#F78289"/>
</svg>
