<svg width="64" height="60" viewBox="0 0 64 60" fill="none" xmlns="http://www.w3.org/2000/svg">
<g clip-path="url(#clip0_13_5)">
<path d="M29.2288 54.1188C36.1039 54.2022 41.9502 51.8928 46.7676 47.1908C51.5851 42.4888 54.0354 36.7002 54.1188 29.8251C54.2021 22.9499 51.8928 17.1036 47.1908 12.2862C42.4888 7.46879 36.7002 5.0184 29.8251 4.93505C22.9499 4.8517 17.1036 7.16103 12.2862 11.863C7.46878 16.5651 5.01839 22.3536 4.93504 29.2288C4.85169 36.1039 7.16102 41.9502 11.863 46.7676C16.565 51.5851 22.3536 54.0355 29.2288 54.1188ZM28.8858 82.4127C21.658 82.3251 14.8438 80.854 8.44302 77.9995C2.04224 75.145 -3.53092 71.2867 -8.27647 66.4247C-13.022 61.5626 -16.744 55.8976 -19.4425 49.4295C-22.141 42.9614 -23.4465 36.1135 -23.3588 28.8858C-23.2702 21.5699 -21.7985 14.7116 -18.944 8.31081C-16.0895 1.91003 -12.2315 -3.64109 -7.37003 -8.34257C-2.50853 -13.0441 3.15626 -16.744 9.62436 -19.4425C16.0925 -22.141 22.9404 -23.4465 30.1681 -23.3588C37.4839 -23.2701 44.3423 -21.7985 50.743 -18.944C57.1438 -16.0895 62.6952 -12.2535 67.3972 -7.43613C72.0992 -2.6187 75.7995 3.02406 78.498 9.49215C81.1965 15.9602 82.5014 22.8522 82.4127 30.1681C82.3251 37.3958 80.854 44.2101 77.9995 50.6108C75.145 57.0116 71.3087 62.585 66.4908 67.3311C61.6728 72.0772 56.0298 75.7995 49.5617 78.498C43.0936 81.1965 36.2016 82.5014 28.8858 82.4127ZM28.9819 74.4798C41.4982 74.6316 52.1726 70.3752 61.0051 61.7108C69.8376 53.0464 74.3291 42.5001 74.4798 30.0719C74.6316 17.5556 70.3973 6.8815 61.7769 -1.95045C53.1565 -10.7824 42.5882 -15.2742 30.0719 -15.426C17.6438 -15.5766 6.99167 -11.3421 -1.88435 -2.72225C-10.7604 5.89758 -15.2742 16.4656 -15.426 28.9819C-15.5767 41.4101 -11.32 52.0624 -2.65615 60.939C6.00775 69.8155 16.5538 74.3292 28.9819 74.4798Z" fill="#F5ECF0"/>
</g>
<g clip-path="url(#clip1_13_5)">
<path d="M54.7686 37.2356C56.8312 37.2607 58.5851 36.5679 60.0303 35.1572C61.4755 33.7466 62.2106 32.0101 62.2356 29.9475C62.2606 27.885 61.5678 26.1311 60.1572 24.6859C58.7466 23.2406 57.0101 22.5055 54.9475 22.4805C52.885 22.4555 51.1311 23.1483 49.6859 24.5589C48.2406 25.9695 47.5055 27.7061 47.4805 29.7686C47.4555 31.8312 48.1483 33.5851 49.5589 35.0303C50.9695 36.4755 52.7061 37.2106 54.7686 37.2356ZM54.6657 45.7238C52.4974 45.6975 50.4531 45.2562 48.5329 44.3999C46.6127 43.5435 44.9407 42.386 43.5171 40.9274C42.0934 39.4688 40.9768 37.7693 40.1672 35.8289C39.3577 33.8884 38.9661 31.834 38.9923 29.6657C39.019 27.471 39.4604 25.4135 40.3168 23.4932C41.1731 21.573 42.3305 19.9077 43.789 18.4972C45.2474 17.0868 46.9469 15.9768 48.8873 15.1672C50.8277 14.3577 52.8821 13.9661 55.0504 13.9924C57.2452 14.019 59.3027 14.4604 61.2229 15.3168C63.1431 16.1731 64.8086 17.3239 66.2192 18.7692C67.6298 20.2144 68.7398 21.9072 69.5494 23.8476C70.3589 25.7881 70.7504 27.8557 70.7238 30.0504C70.6975 32.2187 70.2562 34.263 69.3998 36.1833C68.5435 38.1035 67.3926 39.7755 65.9472 41.1993C64.5018 42.6232 62.8089 43.7399 60.8685 44.5494C58.9281 45.359 56.8605 45.7504 54.6657 45.7238ZM54.6946 43.344C58.4495 43.3895 61.6518 42.1126 64.3015 39.5132C66.9513 36.9139 68.2987 33.75 68.3439 30.0216C68.3895 26.2667 67.1192 23.0645 64.5331 20.4149C61.947 17.7653 58.7765 16.4177 55.0216 16.3722C51.2931 16.327 48.0975 17.5974 45.4347 20.1833C42.7719 22.7693 41.4177 25.9397 41.3722 29.6946C41.327 33.423 42.604 36.6187 45.2032 39.2817C47.8023 41.9447 50.9661 43.2988 54.6946 43.344Z" fill="#B70000"/>
<path d="M54.5682 33.0795C54.1932 33.0795 53.8589 33.0152 53.5653 32.8864C53.2737 32.7576 53.0417 32.5786 52.8693 32.3494C52.6989 32.1184 52.6061 31.8504 52.5909 31.5455H53.3068C53.322 31.733 53.3864 31.8949 53.5 32.0312C53.6136 32.1657 53.7623 32.2699 53.946 32.3438C54.1297 32.4176 54.3333 32.4545 54.5568 32.4545C54.8068 32.4545 55.0284 32.411 55.2216 32.3239C55.4148 32.2367 55.5663 32.1155 55.6761 31.9602C55.786 31.8049 55.8409 31.625 55.8409 31.4205C55.8409 31.2064 55.7879 31.018 55.6818 30.8551C55.5758 30.6903 55.4205 30.5616 55.2159 30.4688C55.0114 30.3759 54.7614 30.3295 54.4659 30.3295H54V29.7045H54.4659C54.697 29.7045 54.8996 29.6629 55.0739 29.5795C55.25 29.4962 55.3873 29.3788 55.4858 29.2273C55.5862 29.0758 55.6364 28.8977 55.6364 28.6932C55.6364 28.4962 55.5928 28.3248 55.5057 28.179C55.4186 28.0331 55.2955 27.9195 55.1364 27.8381C54.9792 27.7566 54.7936 27.7159 54.5795 27.7159C54.3788 27.7159 54.1894 27.7528 54.0114 27.8267C53.8352 27.8987 53.6913 28.0038 53.5795 28.142C53.4678 28.2784 53.4072 28.4432 53.3977 28.6364H52.7159C52.7273 28.3314 52.8191 28.0644 52.9915 27.8352C53.1638 27.6042 53.3892 27.4242 53.6676 27.2955C53.9479 27.1667 54.2557 27.1023 54.5909 27.1023C54.9508 27.1023 55.2595 27.1752 55.517 27.321C55.7746 27.465 55.9725 27.6553 56.1108 27.892C56.2491 28.1288 56.3182 28.3845 56.3182 28.6591C56.3182 28.9867 56.232 29.2661 56.0597 29.4972C55.8892 29.7282 55.6572 29.8883 55.3636 29.9773V30.0227C55.7311 30.0833 56.018 30.2396 56.2244 30.4915C56.4309 30.7415 56.5341 31.0511 56.5341 31.4205C56.5341 31.7367 56.4479 32.0208 56.2756 32.2727C56.1051 32.5227 55.8722 32.7197 55.5767 32.8636C55.2813 33.0076 54.9451 33.0795 54.5682 33.0795Z" fill="white"/>
</g>
<defs>
<clipPath id="clip0_13_5">
<rect width="60" height="60" fill="white"/>
</clipPath>
<clipPath id="clip1_13_5">
<rect width="18" height="18" fill="white" transform="translate(46 21)"/>
</clipPath>
</defs>
</svg>
