<svg width="15" height="36" viewBox="0 0 15 36" fill="none" xmlns="http://www.w3.org/2000/svg">
<path d="M8.20711 35.2929C7.81658 35.6834 7.18342 35.6834 6.79289 35.2929L1.20711 29.7071C0.57714 29.0771 1.02331 28 1.91421 28H5C5.55228 28 6 27.5523 6 27V24V14.5V9C6 8.44772 5.55228 8 5 8H1.91421C1.02331 8 0.577142 6.92286 1.20711 6.29289L6.79289 0.707106C7.18342 0.316582 7.81658 0.316583 8.20711 0.707107L13.7929 6.29289C14.4229 6.92286 13.9767 8 13.0858 8H10C9.44772 8 9 8.44772 9 9V14.5V23.5V27C9 27.5523 9.44772 28 10 28H13.0858C13.9767 28 14.4229 29.0771 13.7929 29.7071L8.20711 35.2929Z" fill="#F78289"/>
</svg>
