<svg width="80" height="80" viewBox="0 0 80 80" fill="none" xmlns="http://www.w3.org/2000/svg">
<path d="M39.9501 80C34.2905 80 29.0304 78.9833 24.1698 76.95C19.3092 74.9167 15.0811 72.1 11.4856 68.5C7.89014 64.9 5.07699 60.6667 3.04619 55.8C1.0154 50.9333 0 45.6667 0 40C0 34.4 1.0154 29.1667 3.04619 24.3C5.07699 19.4333 7.89014 15.2 11.4856 11.6C15.0811 8 19.3092 5.16667 24.1698 3.1C29.0304 1.03333 34.2905 0 39.9501 0C44.9438 0 49.6047 0.8 53.9326 2.4C58.2605 4 62.1556 6.2 65.618 9L61.3233 13.3C58.3937 10.9667 55.1311 9.16667 51.5356 7.9C47.9401 6.63333 44.0782 6 39.9501 6C30.2955 6 22.2222 9.25 15.7303 15.75C9.23845 22.25 5.99251 30.3333 5.99251 40C5.99251 49.6667 9.23845 57.75 15.7303 64.25C22.2222 70.75 30.2955 74 39.9501 74C49.6047 74 57.6779 70.75 64.1698 64.25C70.6617 57.75 73.9076 49.6667 73.9076 40C73.9076 38 73.7578 36.05 73.4582 34.15C73.1586 32.25 72.7091 30.4 72.1099 28.6L76.7041 24C77.7695 26.4667 78.5685 29.0333 79.1011 31.7C79.6338 34.3667 79.9001 37.1333 79.9001 40C79.9001 45.6667 78.8681 50.9333 76.804 55.8C74.7399 60.6667 71.9101 64.9 68.3146 68.5C64.7191 72.1 60.4911 74.9167 55.6305 76.95C50.7699 78.9833 45.5431 80 39.9501 80ZM35.4228 56.8329C34.6612 57.5954 33.4324 57.6174 32.644 56.8826L14.598 40.0616C13.7702 39.29 13.7469 37.9859 14.5466 37.1852L16.3761 35.3534C17.0691 34.6596 18.1628 34.5705 18.9589 35.1429L32.7301 45.0455C33.5024 45.6009 34.559 45.5354 35.2568 44.889L74.0081 8.99457C74.7908 8.26964 76.0046 8.28657 76.7667 9.03304L78.5572 10.7868C79.3518 11.5651 79.3588 12.842 78.5728 13.6289L35.4228 56.8329Z" fill="url(#paint0_linear_0_10)"/>
<defs>
<linearGradient id="paint0_linear_0_10" x1="5.99251" y1="0.999997" x2="80.9925" y2="75.9063" gradientUnits="userSpaceOnUse">
<stop stop-color="#F26CA6" stop-opacity="0.8"/>
<stop offset="1" stop-color="#FCBE3E"/>
</linearGradient>
</defs>
</svg>
